<svg xmlns="http://www.w3.org/2000/svg" viewBox="0 0 512 512">
  <defs>
    <linearGradient id="pawGradient" x1="0%" y1="0%" x2="100%" y2="100%">
      <stop offset="0%" style="stop-color:#3EB489;stop-opacity:1" />
      <stop offset="100%" style="stop-color:#FFFFFF;stop-opacity:1" />
    </linearGradient>
  </defs>
  <!-- Paw 1 (Top Left) -->
  <g transform="translate(20, 40) scale(0.7) rotate(-10)">
    <path d="M256 160c-26.5 0-48 21.5-48 48 0 79.5 84.1 144 144 144s144-64.5 144-144c0-26.5-21.5-48-48-48h-192zM176 96c35.3 0 64-28.7 64-64S211.3 0 176 0s-64 28.7-64 64 28.7 64 64 64zm192 32c35.3 0 64-28.7 64-64s-28.7-64-64-64-64 28.7-64 64 28.7 64 64 64zm128 96c35.3 0 64-28.7 64-64s-28.7-64-64-64-64 28.7-64 64 28.7 64 64 64zM64 224c35.3 0 64-28.7 64-64s-28.7-64-64-64-64 28.7-64 64 28.7 64 64 64z" fill="url(#pawGradient)"/>
  </g>
  <!-- Paw 2 (Bottom Right) -->
  <g transform="translate(180, 200) scale(0.7) rotate(10)">
    <path d="M256 160c-26.5 0-48 21.5-48 48 0 79.5 84.1 144 144 144s144-64.5 144-144c0-26.5-21.5-48-48-48h-192zM176 96c35.3 0 64-28.7 64-64S211.3 0 176 0s-64 28.7-64 64 28.7 64 64 64zm192 32c35.3 0 64-28.7 64-64s-28.7-64-64-64-64 28.7-64 64 28.7 64 64 64zm128 96c35.3 0 64-28.7 64-64s-28.7-64-64-64-64 28.7-64 64 28.7 64 64 64zM64 224c35.3 0 64-28.7 64-64s-28.7-64-64-64-64 28.7-64 64 28.7 64 64 64z" fill="url(#pawGradient)"/>
  </g>
</svg>
